<svg viewBox="0 0 480 480" xmlns="http://www.w3.org/2000/svg" xmlns:xlink="http://www.w3.org/1999/xlink" id="1bb5a566-b4dd-42cf-8623-1b9b63413a01" overflow="hidden"><style>
.MsftOfcThm_Text1_Fill_v2 {
 fill:#000000; 
}
</style>
<path d="M321.74 265.838C302.482 289.146 273.355 304 240.758 304 240.454 304 240.153 303.991 239.85 303.988L270.419 387.977C270.422 387.985 270.434 387.986 270.437 387.978L297.303 330.269C297.303 330.269 353.568 355.976 354.974 357.188 354.982 357.195 354.988 357.185 354.984 357.175L321.74 265.838Z" class="MsftOfcThm_Text1_Fill_v2"/><g><path d="M158.398 264.129 124.532 357.175C124.528 357.185 124.534 357.195 124.542 357.188 125.947 355.976 182.213 330.269 182.213 330.269L209.079 387.978C209.083 387.986 209.094 387.986 209.097 387.977L239.667 303.986C206.726 303.65 177.42 288.151 158.398 264.129Z" class="MsftOfcThm_Text1_Fill_v2"/></g><path d="M240.758 102C294.244 102 337.758 145.514 337.758 199 337.758 252.486 294.244 296 240.758 296 187.272 296 143.758 252.486 143.758 199 143.758 145.514 187.272 102 240.758 102" class="MsftOfcThm_Text1_Fill_v2"/><ellipse cx="240.758" cy="199" rx="73.746" ry="72.836" class="st1" fill="#FFFFFF"/><path d="M240.768 135.739 254.672 180.289 301.338 179.746C301.348 179.746 301.352 179.758 301.344 179.764L263.271 206.755 278.208 250.97C278.211 250.979 278.2 250.987 278.193 250.981L240.758 223.112 203.323 250.981C203.315 250.987 203.304 250.979 203.308 250.97L218.245 206.755 180.172 179.764C180.164 179.758 180.168 179.746 180.178 179.746L226.844 180.289 240.748 135.739C240.752 135.73 240.765 135.73 240.768 135.739Z" class="MsftOfcThm_Text1_Fill_v2"/></svg>