<svg viewBox="0 0 480 480" xmlns="http://www.w3.org/2000/svg" xmlns:xlink="http://www.w3.org/1999/xlink" id="38083177-0e1b-4bca-bf11-8a4729e9f446" overflow="hidden"><style>
.MsftOfcThm_Accent4_Fill_v2 {
 fill:#4775E7; 
}
</style>
<path d="M298.146 360.452 288.197 360.452 287.248 360.452C282.25 360.452 278.197 356.4 278.197 351.401L278.197 128.599C278.197 123.601 282.249 119.548 287.248 119.548L288.197 119.548 298.146 119.548C303.144 119.548 307.197 123.6 307.197 128.599L307.197 351.401C307.197 356.4 303.145 360.452 298.146 360.452Z" class="st0" fill="#CFCFCF"/><path d="M288.392 360.452 181.854 360.452C176.856 360.452 172.803 356.4 172.803 351.401L172.803 128.599C172.803 123.601 176.855 119.548 181.854 119.548L288.392 119.548C293.391 119.548 297.443 123.6 297.443 128.599L297.443 351.401C297.442 356.4 293.39 360.452 288.392 360.452Z" class="st1" fill="#505050"/><g><circle cx="193.632" cy="328.758" r="6.503" class="st0" fill="#CFCFCF"/><circle cx="214.767" cy="328.758" r="6.503" class="st2" fill="#737373"/><circle cx="235.901" cy="328.758" r="6.503" class="st0" fill="#CFCFCF"/><circle cx="257.036" cy="328.758" r="6.503" class="MsftOfcThm_Accent4_Fill_v2" fill="#4775E7"/><circle cx="278.17" cy="328.758" r="6.503" class="st0" fill="#CFCFCF"/><circle cx="193.632" cy="308.166" r="6.503" class="st0" fill="#CFCFCF"/><circle cx="214.767" cy="308.166" r="6.503" class="st2" fill="#737373"/><circle cx="235.901" cy="308.166" r="6.503" class="st2" fill="#737373"/><circle cx="257.036" cy="308.166" r="6.503" class="st2" fill="#737373"/><circle cx="278.17" cy="308.166" r="6.503" class="st0" fill="#CFCFCF"/><circle cx="193.632" cy="287.573" r="6.503" class="st0" fill="#CFCFCF"/><circle cx="214.767" cy="287.573" r="6.503" class="st2" fill="#737373"/><circle cx="235.901" cy="287.573" r="6.503" class="st2" fill="#737373"/><circle cx="257.036" cy="287.573" r="6.503" class="st2" fill="#737373"/><circle cx="278.17" cy="287.573" r="6.503" class="st0" fill="#CFCFCF"/><circle cx="193.632" cy="266.98" r="6.503" class="st0" fill="#CFCFCF"/><circle cx="214.767" cy="266.98" r="6.503" class="st2" fill="#737373"/><circle cx="235.901" cy="266.98" r="6.503" class="st2" fill="#737373"/><circle cx="257.036" cy="266.98" r="6.503" class="st2" fill="#737373"/><circle cx="278.17" cy="266.98" r="6.503" class="st0" fill="#CFCFCF"/><circle cx="193.632" cy="246.388" r="6.503" class="st2" fill="#737373"/><circle cx="214.767" cy="246.388" r="6.503" class="st2" fill="#737373"/><circle cx="235.901" cy="246.388" r="6.503" class="st2" fill="#737373"/><circle cx="257.036" cy="246.388" r="6.503" class="st2" fill="#737373"/><circle cx="278.17" cy="246.388" r="6.503" class="st2" fill="#737373"/></g><circle cx="192.388" cy="210.469" r="4.335" class="st0" fill="#CFCFCF"/><circle cx="213.523" cy="210.469" r="4.335" class="st2" fill="#737373"/><rect x="184.054" y="153.377" width="104.047" height="37.453" class="st0" fill="#CFCFCF"/><rect x="183.318" y="137.665" width="26.441" height="5.386"/></svg>